<mxfile host="Electron" agent="Mozilla/5.0 (Windows NT 10.0; Win64; x64) AppleWebKit/537.36 (KHTML, like Gecko) draw.io/25.0.2 Chrome/128.0.6613.186 Electron/32.2.5 Safari/537.36" version="25.0.2">
  <diagram name="Page-1" id="wr8EtjBj38MVuYJyI7YZ">
    <mxGraphModel dx="1059" dy="692" grid="1" gridSize="10" guides="1" tooltips="1" connect="1" arrows="1" fold="1" page="1" pageScale="1" pageWidth="850" pageHeight="1100" math="0" shadow="0">
      <root>
        <mxCell id="0" />
        <mxCell id="1" parent="0" />
        <mxCell id="ayNtqB6uUqRoCsY5ZzgN-1" value="" style="rounded=0;whiteSpace=wrap;html=1;labelBackgroundColor=none;fillColor=#647687;fontColor=#ffffff;strokeColor=#314354;" parent="1" vertex="1">
          <mxGeometry width="850" height="80" as="geometry" />
        </mxCell>
        <mxCell id="ayNtqB6uUqRoCsY5ZzgN-11" value="" style="verticalLabelPosition=bottom;shadow=0;dashed=0;align=center;html=1;verticalAlign=top;strokeWidth=1;shape=mxgraph.mockup.graphics.simpleIcon;strokeColor=#999999;" parent="1" vertex="1">
          <mxGeometry x="50" y="20" width="50" height="50" as="geometry" />
        </mxCell>
        <mxCell id="ayNtqB6uUqRoCsY5ZzgN-12" value="" style="verticalLabelPosition=bottom;shadow=0;dashed=0;align=center;html=1;verticalAlign=top;strokeWidth=1;shape=mxgraph.mockup.graphics.simpleIcon;strokeColor=#999999;" parent="1" vertex="1">
          <mxGeometry y="80" width="850" height="100" as="geometry" />
        </mxCell>
        <mxCell id="ayNtqB6uUqRoCsY5ZzgN-13" value="Text" style="text;html=1;align=center;verticalAlign=middle;whiteSpace=wrap;rounded=0;fontFamily=&quot;Inter&quot;, sans-serif;" parent="1" vertex="1">
          <mxGeometry x="395" y="120" width="60" height="30" as="geometry" />
        </mxCell>
        <mxCell id="ayNtqB6uUqRoCsY5ZzgN-14" value="Text" style="text;html=1;align=center;verticalAlign=middle;whiteSpace=wrap;rounded=0;fontFamily=&quot;Inter&quot;, sans-serif;" parent="1" vertex="1">
          <mxGeometry x="395" y="143.44" width="60" height="30" as="geometry" />
        </mxCell>
        <mxCell id="ayNtqB6uUqRoCsY5ZzgN-15" value="Normal" style="rounded=1;html=1;shadow=0;dashed=0;whiteSpace=wrap;fontSize=10;fillColor=#666666;align=center;strokeColor=#4D4D4D;fontColor=#ffffff;" parent="1" vertex="1">
          <mxGeometry x="22.25" y="150" width="105.5" height="16.88" as="geometry" />
        </mxCell>
        <mxCell id="ayNtqB6uUqRoCsY5ZzgN-16" value="&lt;br&gt;&lt;span style=&quot;color: rgb(0, 0, 0); font-size: 17px; font-style: normal; font-variant-ligatures: normal; font-variant-caps: normal; font-weight: 400; letter-spacing: normal; orphans: 2; text-align: center; text-indent: 0px; text-transform: none; widows: 2; word-spacing: 0px; -webkit-text-stroke-width: 0px; white-space: normal; background-color: rgb(251, 251, 251); text-decoration-thickness: initial; text-decoration-style: initial; text-decoration-color: initial; float: none; display: inline !important;&quot;&gt;Text&lt;/span&gt;&lt;br&gt;&amp;nbsp; &amp;nbsp;&amp;nbsp;" style="text;html=1;align=center;verticalAlign=middle;resizable=0;points=[];autosize=1;strokeColor=none;fillColor=none;fontFamily=&quot;Inter&quot;, sans-serif;" parent="1" vertex="1">
          <mxGeometry x="395" y="200" width="50" height="60" as="geometry" />
        </mxCell>
        <mxCell id="ayNtqB6uUqRoCsY5ZzgN-17" value="&lt;font style=&quot;font-size: 17px;&quot;&gt;Text&lt;/font&gt;" style="text;html=1;align=center;verticalAlign=middle;whiteSpace=wrap;rounded=0;fontFamily=&quot;Inter&quot;, sans-serif;" parent="1" vertex="1">
          <mxGeometry x="260" y="180" width="60" height="30" as="geometry" />
        </mxCell>
        <mxCell id="ayNtqB6uUqRoCsY5ZzgN-18" value="&lt;span style=&quot;color: rgb(0, 0, 0); font-size: 17px; font-style: normal; font-variant-ligatures: normal; font-variant-caps: normal; letter-spacing: normal; orphans: 2; text-align: center; text-indent: 0px; text-transform: none; widows: 2; word-spacing: 0px; -webkit-text-stroke-width: 0px; white-space: normal; background-color: rgb(251, 251, 251); text-decoration-thickness: initial; text-decoration-style: initial; text-decoration-color: initial; float: none; display: inline !important;&quot;&gt;Text&lt;/span&gt;" style="text;whiteSpace=wrap;html=1;fontFamily=&quot;Inter&quot;, sans-serif;fontStyle=0" parent="1" vertex="1">
          <mxGeometry x="405" y="180" width="60" height="40" as="geometry" />
        </mxCell>
        <mxCell id="ayNtqB6uUqRoCsY5ZzgN-19" value="&lt;span style=&quot;color: rgb(0, 0, 0); font-size: 17px; font-style: normal; font-variant-ligatures: normal; font-variant-caps: normal; font-weight: 400; letter-spacing: normal; orphans: 2; text-align: center; text-indent: 0px; text-transform: none; widows: 2; word-spacing: 0px; -webkit-text-stroke-width: 0px; white-space: normal; background-color: rgb(251, 251, 251); text-decoration-thickness: initial; text-decoration-style: initial; text-decoration-color: initial; float: none; display: inline !important;&quot;&gt;Text&lt;/span&gt;" style="text;whiteSpace=wrap;html=1;fontFamily=&quot;Inter&quot;, sans-serif;" parent="1" vertex="1">
          <mxGeometry x="540" y="180" width="60" height="40" as="geometry" />
        </mxCell>
        <mxCell id="ayNtqB6uUqRoCsY5ZzgN-20" value="" style="sketch=0;outlineConnect=0;fontColor=#232F3E;gradientColor=none;fillColor=#ED7100;strokeColor=none;dashed=0;verticalLabelPosition=bottom;verticalAlign=top;align=center;html=1;fontSize=12;fontStyle=0;aspect=fixed;pointerEvents=1;shape=mxgraph.aws4.container_registry_image;" parent="1" vertex="1">
          <mxGeometry x="400" y="300" width="30" height="30" as="geometry" />
        </mxCell>
        <mxCell id="ayNtqB6uUqRoCsY5ZzgN-21" value="" style="sketch=0;outlineConnect=0;fontColor=#232F3E;gradientColor=none;fillColor=#ED7100;strokeColor=none;dashed=0;verticalLabelPosition=bottom;verticalAlign=top;align=center;html=1;fontSize=12;fontStyle=0;aspect=fixed;pointerEvents=1;shape=mxgraph.aws4.container_registry_image;" parent="1" vertex="1">
          <mxGeometry x="400" y="260" width="30" height="30" as="geometry" />
        </mxCell>
        <mxCell id="ayNtqB6uUqRoCsY5ZzgN-22" value="" style="sketch=0;outlineConnect=0;fontColor=#232F3E;gradientColor=none;fillColor=#ED7100;strokeColor=none;dashed=0;verticalLabelPosition=bottom;verticalAlign=top;align=center;html=1;fontSize=12;fontStyle=0;aspect=fixed;pointerEvents=1;shape=mxgraph.aws4.container_registry_image;" parent="1" vertex="1">
          <mxGeometry x="400" y="340" width="30" height="30" as="geometry" />
        </mxCell>
        <mxCell id="ayNtqB6uUqRoCsY5ZzgN-23" value="" style="rounded=0;whiteSpace=wrap;html=1;" parent="1" vertex="1">
          <mxGeometry y="390" width="850" height="160" as="geometry" />
        </mxCell>
        <mxCell id="ayNtqB6uUqRoCsY5ZzgN-25" value="Icon" style="icon;html=1;image=img/clipart/Gear_128x128.png;arcSize=50;" parent="1" vertex="1">
          <mxGeometry x="250" y="488" width="20" height="35" as="geometry" />
        </mxCell>
        <mxCell id="ayNtqB6uUqRoCsY5ZzgN-26" value="Icon" style="icon;html=1;image=img/clipart/Gear_128x128.png;arcSize=50;" parent="1" vertex="1">
          <mxGeometry x="250" y="413" width="20" height="35" as="geometry" />
        </mxCell>
        <mxCell id="ayNtqB6uUqRoCsY5ZzgN-27" value="Icon" style="icon;html=1;image=img/clipart/Gear_128x128.png;arcSize=50;" parent="1" vertex="1">
          <mxGeometry x="600" y="410" width="20" height="35" as="geometry" />
        </mxCell>
        <mxCell id="ayNtqB6uUqRoCsY5ZzgN-28" value="Icon" style="icon;html=1;image=img/clipart/Gear_128x128.png;arcSize=50;" parent="1" vertex="1">
          <mxGeometry x="606" y="482" width="20" height="35" as="geometry" />
        </mxCell>
        <mxCell id="ayNtqB6uUqRoCsY5ZzgN-31" value="" style="sketch=0;outlineConnect=0;fontColor=#232F3E;gradientColor=none;fillColor=#ED7100;strokeColor=none;dashed=0;verticalLabelPosition=bottom;verticalAlign=top;align=center;html=1;fontSize=12;fontStyle=0;aspect=fixed;pointerEvents=1;shape=mxgraph.aws4.container_registry_image;" parent="1" vertex="1">
          <mxGeometry x="30" y="670" width="70" height="70" as="geometry" />
        </mxCell>
        <mxCell id="ayNtqB6uUqRoCsY5ZzgN-32" value="&lt;h1 style=&quot;margin-top: 0px;&quot;&gt;Heading&lt;/h1&gt;&lt;p&gt;Lorem ipsum dolor sit amet, consectetur adipisicing elit, sed do eiusmod tempor incididunt ut labore et dolore magna aliqua.&lt;/p&gt;" style="text;html=1;whiteSpace=wrap;overflow=hidden;rounded=0;fontFamily=&quot;Inter&quot;, sans-serif;" parent="1" vertex="1">
          <mxGeometry x="22.25" y="560" width="177.75" height="90" as="geometry" />
        </mxCell>
        <mxCell id="ayNtqB6uUqRoCsY5ZzgN-33" value="&lt;h1 style=&quot;margin-top: 0px;&quot;&gt;Heading&lt;/h1&gt;&lt;p&gt;Lorem ipsum dolor sit amet, consectetur adipisicing elit, sed do eiusmod tempor incididunt ut labore et dolore magna aliqua.&lt;/p&gt;" style="text;html=1;whiteSpace=wrap;overflow=hidden;rounded=0;fontFamily=&quot;Roboto&quot;, sans-serif;" parent="1" vertex="1">
          <mxGeometry x="22.25" y="740" width="152.25" height="90" as="geometry" />
        </mxCell>
        <mxCell id="ayNtqB6uUqRoCsY5ZzgN-34" value="" style="rounded=0;whiteSpace=wrap;html=1;fillColor=#647687;fontColor=#ffffff;strokeColor=#314354;" parent="1" vertex="1">
          <mxGeometry y="850" width="850" height="250" as="geometry" />
        </mxCell>
        <mxCell id="ayNtqB6uUqRoCsY5ZzgN-35" value="" style="verticalLabelPosition=bottom;shadow=0;dashed=0;align=center;html=1;verticalAlign=top;strokeWidth=1;shape=mxgraph.mockup.graphics.simpleIcon;strokeColor=#999999;" parent="1" vertex="1">
          <mxGeometry x="390" y="860" width="30" height="30" as="geometry" />
        </mxCell>
        <mxCell id="ayNtqB6uUqRoCsY5ZzgN-37" value="&lt;font style=&quot;font-size: 17px;&quot;&gt;Text&lt;/font&gt;" style="text;html=1;align=center;verticalAlign=middle;whiteSpace=wrap;rounded=0;fontColor=#FFFFFF;fontFamily=&quot;Inter&quot;, sans-serif;" parent="1" vertex="1">
          <mxGeometry x="380" y="890" width="60" height="40" as="geometry" />
        </mxCell>
        <mxCell id="ayNtqB6uUqRoCsY5ZzgN-38" value="&lt;font style=&quot;font-size: 17px;&quot;&gt;Text&lt;/font&gt;" style="text;html=1;align=center;verticalAlign=middle;whiteSpace=wrap;rounded=0;fontColor=#FFFFFF;fontFamily=&quot;Inter&quot;, sans-serif;" parent="1" vertex="1">
          <mxGeometry x="380" y="930" width="60" height="40" as="geometry" />
        </mxCell>
        <mxCell id="ayNtqB6uUqRoCsY5ZzgN-39" value="" style="dashed=0;outlineConnect=0;html=1;align=center;labelPosition=center;verticalLabelPosition=bottom;verticalAlign=top;shape=mxgraph.webicons.phone;fillColor=#76F21E;gradientColor=#079704" parent="1" vertex="1">
          <mxGeometry x="360" y="930" width="20" height="30" as="geometry" />
        </mxCell>
        <mxCell id="ayNtqB6uUqRoCsY5ZzgN-41" value="" style="html=1;verticalLabelPosition=bottom;align=center;labelBackgroundColor=#ffffff;verticalAlign=top;strokeWidth=2;strokeColor=#0080F0;shadow=0;dashed=0;shape=mxgraph.ios7.icons.location;" parent="1" vertex="1">
          <mxGeometry x="356" y="970" width="24" height="20" as="geometry" />
        </mxCell>
        <mxCell id="ayNtqB6uUqRoCsY5ZzgN-44" value="" style="html=1;verticalLabelPosition=bottom;align=center;labelBackgroundColor=#ffffff;verticalAlign=top;strokeWidth=2;strokeColor=#0080F0;shadow=0;dashed=0;shape=mxgraph.ios7.icons.mail;" parent="1" vertex="1">
          <mxGeometry x="352" y="996" width="30" height="16.5" as="geometry" />
        </mxCell>
        <mxCell id="ayNtqB6uUqRoCsY5ZzgN-47" value="&lt;font style=&quot;font-size: 17px;&quot;&gt;Text&lt;/font&gt;" style="text;html=1;align=center;verticalAlign=middle;whiteSpace=wrap;rounded=0;fontColor=#FFFFFF;fontFamily=&quot;Inter&quot;, sans-serif;" parent="1" vertex="1">
          <mxGeometry x="380" y="910" width="60" height="40" as="geometry" />
        </mxCell>
        <mxCell id="ayNtqB6uUqRoCsY5ZzgN-48" value="&lt;font style=&quot;font-size: 17px;&quot;&gt;Text&lt;/font&gt;" style="text;html=1;align=center;verticalAlign=middle;whiteSpace=wrap;rounded=0;fontColor=#FFFFFF;fontFamily=&quot;Inter&quot;, sans-serif;" parent="1" vertex="1">
          <mxGeometry x="380" y="950" width="60" height="40" as="geometry" />
        </mxCell>
        <mxCell id="ayNtqB6uUqRoCsY5ZzgN-50" value="&lt;font style=&quot;font-size: 17px;&quot;&gt;Text&lt;/font&gt;" style="text;html=1;align=center;verticalAlign=middle;whiteSpace=wrap;rounded=0;fontColor=#FFFFFF;fontFamily=&quot;Inter&quot;, sans-serif;" parent="1" vertex="1">
          <mxGeometry x="380" y="980" width="60" height="40" as="geometry" />
        </mxCell>
        <mxCell id="ayNtqB6uUqRoCsY5ZzgN-51" value="" style="dashed=0;outlineConnect=0;html=1;align=center;labelPosition=center;verticalLabelPosition=bottom;verticalAlign=top;shape=mxgraph.webicons.instagram;gradientColor=#DFDEDE" parent="1" vertex="1">
          <mxGeometry x="393" y="1012.5" width="27" height="17.5" as="geometry" />
        </mxCell>
        <mxCell id="ayNtqB6uUqRoCsY5ZzgN-52" value="" style="dashed=0;outlineConnect=0;html=1;align=center;labelPosition=center;verticalLabelPosition=bottom;verticalAlign=top;shape=mxgraph.webicons.linkedin;fillColor=#0095DB;gradientColor=#006391" parent="1" vertex="1">
          <mxGeometry x="397.5" y="1040" width="25" height="20" as="geometry" />
        </mxCell>
        <mxCell id="ayNtqB6uUqRoCsY5ZzgN-53" value="" style="dashed=0;outlineConnect=0;html=1;align=center;labelPosition=center;verticalLabelPosition=bottom;verticalAlign=top;shape=mxgraph.webicons.twitter;fillColor=#49EAF7;gradientColor=#137BD0" parent="1" vertex="1">
          <mxGeometry x="397.5" y="1070" width="25" height="20" as="geometry" />
        </mxCell>
        <mxCell id="d6u9DeF3AGLc6tTdLfDs-2" value="" style="html=1;verticalLabelPosition=bottom;labelBackgroundColor=#FFFFFF;verticalAlign=top;shadow=0;dashed=0;strokeWidth=2;shape=mxgraph.ios7.misc.options;fillColor=#222222;sketch=0;fontColor=#FFFFFF;labelBorderColor=none;" vertex="1" parent="1">
          <mxGeometry x="715" y="30" width="32" height="20" as="geometry" />
        </mxCell>
      </root>
    </mxGraphModel>
  </diagram>
</mxfile>
